  0
SECTION
  2
HEADER
  9
$ACADVER
  1
AC1009
  9
$INSBASE
 10
0.0
 20
0.0
 30
0.0
  9
$EXTMIN
 10
0.0
 20
0.0
 30
0.0
  9
$EXTMAX
 10
188.56365458856729
 20
192.1610406918808
 30
0.0
  9
$LIMMIN
 10
0.0
 20
0.0
  9
$LIMMAX
 10
188.56365458856729
 20
192.1610406918808
  9
$ORTHOMODE
 70
     0
  9
$REGENMODE
 70
     1
  9
$FILLMODE
 70
     1
  9
$QTEXTMODE
 70
     0
  9
$MIRRTEXT
 70
     0
  9
$DRAGMODE
 70
     2
  9
$LTSCALE
 40
1.0
  9
$OSMODE
 70
     0
  9
$ATTMODE
 70
     1
  9
$TEXTSIZE
 40
0.2
  9
$TRACEWID
 40
0.05
  9
$TEXTSTYLE
  7
STANDARD
  9
$CLAYER
  8
0
  9
$CELTYPE
  6
BYLAYER
  9
$CECOLOR
 62
   256
  9
$DIMSCALE
 40
1.0
  9
$DIMASZ
 40
1.7999999999999989
  9
$DIMEXO
 40
0.0625
  9
$DIMDLI
 40
0.38
  9
$DIMRND
 40
0.0
  9
$DIMDLE
 40
0.0
  9
$DIMEXE
 40
0.18
  9
$DIMTP
 40
0.0
  9
$DIMTM
 40
0.0
  9
$DIMTXT
 40
1.7999999999999989
  9
$DIMCEN
 40
0.09
  9
$DIMTSZ
 40
0.0
  9
$DIMTOL
 70
     0
  9
$DIMLIM
 70
     0
  9
$DIMTIH
 70
     1
  9
$DIMTOH
 70
     1
  9
$DIMSE1
 70
     0
  9
$DIMSE2
 70
     0
  9
$DIMTAD
 70
     0
  9
$DIMZIN
 70
     0
  9
$DIMBLK
  1

  9
$DIMASO
 70
     1
  9
$DIMSHO
 70
     1
  9
$DIMPOST
  1

  9
$DIMAPOST
  1

  9
$DIMALT
 70
     0
  9
$DIMALTD
 70
     2
  9
$DIMALTF
 40
25.399999999999999
  9
$DIMLFAC
 40
1.0
  9
$DIMTOFL
 70
     0
  9
$DIMTVP
 40
0.0
  9
$DIMTIX
 70
     0
  9
$DIMSOXD
 70
     0
  9
$DIMSAH
 70
     0
  9
$DIMBLK1
  1

  9
$DIMBLK2
  1

  9
$DIMSTYLE
  2
STANDARD
  9
$DIMCLRD
 70
     0
  9
$DIMCLRE
 70
     0
  9
$DIMCLRT
 70
     0
  9
$DIMTFAC
 40
1.0
  9
$DIMGAP
 40
0.09
  9
$LUNITS
 70
     2
  9
$LUPREC
 70
     4
  9
$SKETCHINC
 40
0.1
  9
$FILLETRAD
 40
0.0
  9
$AUNITS
 70
     0
  9
$AUPREC
 70
     0
  9
$MENU
  1
.
  9
$ELEVATION
 40
0.0
  9
$PELEVATION
 40
0.0
  9
$THICKNESS
 40
0.0
  9
$LIMCHECK
 70
     0
  9
$BLIPMODE
 70
     0
  9
$CHAMFERA
 40
0.0
  9
$CHAMFERB
 40
0.0
  9
$SKPOLY
 70
     0
  9
$TDCREATE
 40
2456375.2317196759
  9
$TDUPDATE
 40
2456375.2317196759
  9
$TDINDWG
 40
0.000010463
  9
$TDUSRTIMER
 40
0.000010463
  9
$USRTIMER
 70
     1
  9
$ANGBASE
 50
0.0
  9
$ANGDIR
 70
     0
  9
$PDMODE
 70
     0
  9
$PDSIZE
 40
0.0
  9
$PLINEWID
 40
0.0
  9
$COORDS
 70
     0
  9
$SPLFRAME
 70
     0
  9
$SPLINETYPE
 70
     6
  9
$SPLINESEGS
 70
     8
  9
$ATTDIA
 70
     0
  9
$ATTREQ
 70
     1
  9
$HANDLING
 70
     1
  9
$HANDSEED
  5
1A5
  9
$SURFTAB1
 70
     6
  9
$SURFTAB2
 70
     6
  9
$SURFTYPE
 70
     6
  9
$SURFU
 70
     6
  9
$SURFV
 70
     6
  9
$UCSNAME
  2

  9
$UCSORG
 10
0.0
 20
0.0
 30
0.0
  9
$UCSXDIR
 10
1.0
 20
0.0
 30
0.0
  9
$UCSYDIR
 10
0.0
 20
1.0
 30
0.0
  9
$PUCSNAME
  2

  9
$PUCSORG
 10
0.0
 20
0.0
 30
0.0
  9
$PUCSXDIR
 10
1.0
 20
0.0
 30
0.0
  9
$PUCSYDIR
 10
0.0
 20
1.0
 30
0.0
  9
$USERI1
 70
     0
  9
$USERI2
 70
     0
  9
$USERI3
 70
     0
  9
$USERI4
 70
     0
  9
$USERI5
 70
     0
  9
$USERR1
 40
0.0
  9
$USERR2
 40
0.0
  9
$USERR3
 40
0.0
  9
$USERR4
 40
0.0
  9
$USERR5
 40
0.0
  9
$WORLDVIEW
 70
     1
  9
$SHADEDGE
 70
     3
  9
$SHADEDIF
 70
    70
  9
$TILEMODE
 70
     1
  9
$MAXACTVP
 70
    64
  9
$PLIMCHECK
 70
     0
  9
$PEXTMIN
 10
0.0
 20
0.0
 30
0.0
  9
$PEXTMAX
 10
188.56365458856729
 20
192.1610406918808
 30
0.0
  9
$PLIMMIN
 10
0.0
 20
0.0
  9
$PLIMMAX
 10
188.56365458856729
 20
192.1610406918808
  9
$UNITMODE
 70
     0
  9
$VISRETAIN
 70
     1
  9
$PLINEGEN
 70
     0
  9
$PSLTSCALE
 70
     1
  0
ENDSEC
  0
SECTION
  2
TABLES
  0
TABLE
  2
VPORT
 70
     1
  0
VPORT
  2
*ACTIVE
 70
     0
 10
0.0
 20
0.0
 11
1.0
 21
1.0
 12
-80.698190192726017
 22
41.122626914107741
 13
0.0
 23
0.0
 14
1.0
 24
1.0
 15
0.0
 25
0.0
 16
0.0
 26
0.0
 36
1.0
 17
0.0
 27
0.0
 37
0.0
 40
192.1610406918808
 41
0.9812793160863359
 42
50.0
 43
0.0
 44
0.0
 50
0.0
 51
0.0
 71
     0
 72
   100
 73
     1
 74
     1
 75
     0
 76
     0
 77
     0
 78
     0
  0
ENDTAB
  0
TABLE
  2
LTYPE
 70
    59
  0
LTYPE
  2
CONTINUOUS
 70
     0
  3
Solid line
 72
    65
 73
     0
 40
0.0
  0
LTYPE
  2
PHANTOM2
 70
     0
  3
Phantom (.5x) ___ _ _ ___ _ _ ___ _ _ ___ _ _
 72
    65
 73
     6
 40
1.25
 49
0.625
 49
-0.125
 49
0.125
 49
-0.125
 49
0.125
 49
-0.125
  0
LTYPE
  2
BY_STANDARD
 70
     0
  3
By Standard ____________    ____    ____   _
 72
    65
 73
     6
 40
1.2402999999999991
 49
0.6614
 49
-0.0827
 49
0.1654
 49
-0.0827
 49
0.1654
 49
-0.0827
  0
LTYPE
  2
CHAIN
 70
     0
  3
Chain ____ _ ____ _ ____ _ ____ _ ____ _ ____
 72
    65
 73
     4
 40
0.7087
 49
0.4724000000000001
 49
-0.0591
 49
0.1181
 49
-0.0591
  0
LTYPE
  2
DASH_DOT
 70
     0
  3
Dash dot __ . __ . __ . __ . __ . __ . __ . __
 72
    65
 73
     4
 40
0.37
 49
0.24
 49
-0.06
 49
0.01
 49
-0.06
  0
LTYPE
  2
DOUBLE_DASH_DOT
 70
     0
  3
Double-Dash Dot __ __ . __ __ . __ __ . __ _
 72
    65
 73
     6
 40
0.4398
 49
0.24
 49
-0.06
 49
0.0098
 49
-0.06
 49
0.01
 49
-0.06
  0
LTYPE
  2
DASH_TRIPLE_DOT
 70
     0
  3
Dash Triple-Dot _ . . . _ . . . _ . . . _
 72
    65
 73
     8
 40
0.51
 49
0.24
 49
-0.06
 49
0.01
 49
-0.06
 49
0.01
 49
-0.06
 49
0.01
 49
-0.06
  0
LTYPE
  2
DASHED
 70
     0
  3
Dashed __ __ __ __ __ __ __ __ __ __ __ __ __ _
 72
    65
 73
     2
 40
0.2067
 49
0.1654
 49
-0.0413
  0
LTYPE
  2
DASH_DOUBLE_DOT
 70
     0
  3
Dash Double-Dot __ . . __ . . __ . . __ . .
 72
    65
 73
     6
 40
0.4398
 49
0.24
 49
-0.06
 49
0.0098
 49
-0.06
 49
0.01
 49
-0.06
  0
LTYPE
  2
DASHED_SPACE
 70
     0
  3
Dashed Space __ __ __ __ __ __ __ __ __ __ __ _
 72
    65
 73
     2
 40
0.2067
 49
0.1654
 49
-0.0413
  0
LTYPE
  2
DOTTED
 70
     0
  3
Dotted . . . . . . . . . . . . . . . . . . . . 
 72
    65
 73
     2
 40
0.0482
 49
0.0069
 49
-0.0413
  0
LTYPE
  2
DOUBLE_DASH_CHAIN
 70
     0
  3
Double-Dash Chain ______  __  __  ______  __  _
 72
    65
 73
     6
 40
1.2402999999999991
 49
0.6614
 49
-0.0827
 49
0.1654
 49
-0.0827
 49
0.1654
 49
-0.0827
  0
LTYPE
  2
DOUBLE_DASH_DOUBLE_DOT
 70
     0
  3
Double-Dash Double-dot _ _ . . _ _ . . _
 72
    65
 73
     8
 40
0.7400000000000001
 49
0.24
 49
-0.06
 49
0.24
 49
-0.06
 49
0.01
 49
-0.06
 49
0.01
 49
-0.06
  0
LTYPE
  2
DOUBLE_DASH_TRIPLE_DOT
 70
     0
  3
Double Dash Triple Dot __ __ . . . __ __ . .
 72
    65
 73
    10
 40
0.8100000000000001
 49
0.24
 49
-0.06
 49
0.24
 49
-0.06
 49
0.01
 49
-0.06
 49
0.01
 49
-0.06
 49
0.01
 49
-0.06
  0
LTYPE
  2
LONG_DASH_DOTTED
 70
     0
  3
Long Dash Dotted ____ . ____ . ____ . ____ . _
 72
    65
 73
     4
 40
0.3543
 49
0.2362
 49
-0.0295
 49
0.0591
 49
-0.0295
  0
LTYPE
  2
LONG_DASH_DOUBLE_DOT
 70
     0
  3
Long Dash Double Dot ________  .  .  ________  
 72
    65
 73
     6
 40
0.6799999999999999
 49
0.48
 49
-0.06
 49
0.01
 49
-0.06
 49
0.01
 49
-0.06
  0
LTYPE
  2
LONG_DASH_TRIPLE_DOT
 70
     0
  3
Long Dash Triple Dot ____ ... ____ ... ____
 72
    65
 73
     8
 40
0.3689
 49
0.2362
 49
-0.0295
 49
0.0049
 49
-0.0295
 49
0.0049
 49
-0.0295
 49
0.0049
 49
-0.0295
  0
LTYPE
  2
BORDER
 70
     0
  3
Border __ __ . __ __ . __ __ . __ __ . __ __ .
 72
    65
 73
     6
 40
1.75
 49
0.5
 49
-0.25
 49
0.5
 49
-0.25
 49
0.0
 49
-0.25
  0
LTYPE
  2
BORDER2
 70
     0
  3
Border (.5x) __.__.__.__.__.__.__.__.__.__.__.
 72
    65
 73
     6
 40
0.875
 49
0.25
 49
-0.125
 49
0.25
 49
-0.125
 49
0.0
 49
-0.125
  0
LTYPE
  2
BORDERX2
 70
     0
  3
Border (2x) ____  ____  .  ____  ____  .  ___
 72
    65
 73
     6
 40
3.5
 49
1.0
 49
-0.5
 49
1.0
 49
-0.5
 49
0.0
 49
-0.5
  0
LTYPE
  2
CENTER
 70
     0
  3
Center ____ _ ____ _ ____ _ ____ _ ____ _ ____
 72
    65
 73
     4
 40
2.0
 49
1.25
 49
-0.25
 49
0.25
 49
-0.25
  0
LTYPE
  2
CENTER2
 70
     0
  3
Center (.5x) ___ _ ___ _ ___ _ ___ _ ___ _ ___
 72
    65
 73
     4
 40
1.125
 49
0.75
 49
-0.125
 49
0.125
 49
-0.125
  0
LTYPE
  2
CENTERX2
 70
     0
  3
Center (2x) ________  __  ________  __  _____
 72
    65
 73
     4
 40
4.0
 49
2.5
 49
-0.5
 49
0.5
 49
-0.5
  0
LTYPE
  2
DASHDOT2
 70
     0
  3
Dash dot (.5x) _._._._._._._._._._._._._._._.
 72
    65
 73
     4
 40
0.5
 49
0.25
 49
-0.125
 49
0.0
 49
-0.125
  0
LTYPE
  2
DASHDOTX2
 70
     0
  3
Dash dot (2x) ____  .  ____  .  ____  .  ___
 72
    65
 73
     4
 40
2.0
 49
1.0
 49
-0.5
 49
0.0
 49
-0.5
  0
LTYPE
  2
DASHED2
 70
     0
  3
Dashed (.5x) _ _ _ _ _ _ _ _ _ _ _ _ _ _ _ _ _
 72
    65
 73
     2
 40
0.375
 49
0.25
 49
-0.125
  0
LTYPE
  2
DASHEDX2
 70
     0
  3
Dashed (2x) ____  ____  ____  ____  ____  ___
 72
    65
 73
     2
 40
1.5
 49
1.0
 49
-0.5
  0
LTYPE
  2
DIVIDE
 70
     0
  3
Divide ____ . . ____ . . ____ . . ____ . . ____
 72
    65
 73
     6
 40
1.25
 49
0.5
 49
-0.25
 49
0.0
 49
-0.25
 49
0.0
 49
-0.25
  0
LTYPE
  2
DIVIDE2
 70
     0
  3
Divide (.5x) __..__..__..__..__..__..__..__.._
 72
    65
 73
     6
 40
0.625
 49
0.25
 49
-0.125
 49
0.0
 49
-0.125
 49
0.0
 49
-0.125
  0
LTYPE
  2
DIVIDEX2
 70
     0
  3
Divide (2x) ________  .  .  ________  .  .  _
 72
    65
 73
     6
 40
2.5
 49
1.0
 49
-0.5
 49
0.0
 49
-0.5
 49
0.0
 49
-0.5
  0
LTYPE
  2
DOT
 70
     0
  3
Dot . . . . . . . . . . . . . . . . . . . . . .
 72
    65
 73
     2
 40
0.25
 49
0.0
 49
-0.25
  0
LTYPE
  2
DOT2
 70
     0
  3
Dot (.5x) .....................................
 72
    65
 73
     2
 40
0.125
 49
0.0
 49
-0.125
  0
LTYPE
  2
DOTX2
 70
     0
  3
Dot (2x) .  .  .  .  .  .  .  .  .  .  .  .  . 
 72
    65
 73
     2
 40
0.5
 49
0.0
 49
-0.5
  0
LTYPE
  2
HIDDEN
 70
     0
  3
Hidden __ __ __ __ __ __ __ __ __ __ __ __ __ _
 72
    65
 73
     2
 40
0.375
 49
0.25
 49
-0.125
  0
LTYPE
  2
HIDDEN2
 70
     0
  3
Hidden (.5x) _ _ _ _ _ _ _ _ _ _ _ _ _ _ _ _ _
 72
    65
 73
     2
 40
0.1875
 49
0.125
 49
-0.0625
  0
LTYPE
  2
HIDDENX2
 70
     0
  3
Hidden (2x) ____ ____ ____ ____ ____ ____ ____
 72
    65
 73
     2
 40
0.75
 49
0.5
 49
-0.25
  0
LTYPE
  2
PHANTOM
 70
     0
  3
Phantom ______  __  __  ______  __  __  ______
 72
    65
 73
     6
 40
2.5
 49
1.25
 49
-0.25
 49
0.25
 49
-0.25
 49
0.25
 49
-0.25
  0
LTYPE
  2
PHANTOMX2
 70
     0
  3
Phantom (2x) ____________    ____    ____   _
 72
    65
 73
     6
 40
5.0
 49
2.5
 49
-0.5
 49
0.5
 49
-0.5
 49
0.5
 49
-0.5
  0
LTYPE
  2
ACAD_ISO02W100
 70
     0
  3
ISO dash __ __ __ __ __ __ __ __ __ __ __ __ __
 72
    65
 73
     2
 40
0.59
 49
0.47
 49
-0.12
  0
LTYPE
  2
ACAD_ISO03W100
 70
     0
  3
ISO dash space __    __    __    __    __    __
 72
    65
 73
     2
 40
1.179999999999999
 49
0.47
 49
-0.71
  0
LTYPE
  2
ACAD_ISO04W100
 70
     0
  3
ISO long-dash dot ____ . ____ . ____ . ____ . _
 72
    65
 73
     4
 40
1.179999999999999
 49
0.9399999999999998
 49
-0.12
 49
0.0
 49
-0.12
  0
LTYPE
  2
ACAD_ISO05W100
 70
     0
  3
ISO long-dash double-dot ____ .. ____ .. ____ .
 72
    65
 73
     6
 40
1.2999999999999989
 49
0.9399999999999998
 49
-0.12
 49
0.0
 49
-0.12
 49
0.0
 49
-0.12
  0
LTYPE
  2
ACAD_ISO06W100
 70
     0
  3
ISO long-dash triple-dot ____ ... ____ ... ____
 72
    65
 73
     8
 40
1.419999999999999
 49
0.9399999999999998
 49
-0.12
 49
0.0
 49
-0.12
 49
0.0
 49
-0.12
 49
0.0
 49
-0.12
  0
LTYPE
  2
ACAD_ISO07W100
 70
     0
  3
ISO dot . . . . . . . . . . . . . . . . . . . .
 72
    65
 73
     2
 40
0.12
 49
0.0
 49
-0.12
  0
LTYPE
  2
ACAD_ISO08W100
 70
     0
  3
ISO long-dash short-dash ____ __ ____ __ ____ _
 72
    65
 73
     4
 40
0.95
 49
0.47
 49
-0.12
 49
0.24
 49
-0.12
  0
LTYPE
  2
ACAD_ISO09W100
 70
     0
  3
ISO long-dash double-short-dash ____ __ __ ____
 72
    65
 73
     6
 40
1.3100000000000001
 49
0.47
 49
-0.12
 49
0.24
 49
-0.12
 49
0.24
 49
-0.12
  0
LTYPE
  2
ACAD_ISO10W100
 70
     0
  3
ISO dash dot __ . __ . __ . __ . __ . __ . __ .
 72
    65
 73
     4
 40
0.71
 49
0.47
 49
-0.12
 49
0.0
 49
-0.12
  0
LTYPE
  2
ACAD_ISO11W100
 70
     0
  3
ISO double-dash dot __ __ . __ __ . __ __ . __ 
 72
    65
 73
     6
 40
1.2999999999999989
 49
0.47
 49
-0.12
 49
0.47
 49
-0.12
 49
0.0
 49
-0.12
  0
LTYPE
  2
ACAD_ISO12W100
 70
     0
  3
ISO dash double-dot __ . . __ . . __ . . __ . .
 72
    65
 73
     6
 40
0.8299999999999999
 49
0.47
 49
-0.12
 49
0.0
 49
-0.12
 49
0.0
 49
-0.12
  0
LTYPE
  2
ACAD_ISO13W100
 70
     0
  3
ISO double-dash double-dot __ __ . . __ __ . . 
 72
    65
 73
     8
 40
1.419999999999999
 49
0.47
 49
-0.12
 49
0.47
 49
-0.12
 49
0.0
 49
-0.12
 49
0.0
 49
-0.12
  0
LTYPE
  2
ACAD_ISO14W100
 70
     0
  3
ISO dash triple-dot __ . . . __ . . . __ . . . 
 72
    65
 73
     8
 40
0.95
 49
0.47
 49
-0.12
 49
0.0
 49
-0.12
 49
0.0
 49
-0.12
 49
0.0
 49
-0.12
  0
LTYPE
  2
ACAD_ISO15W100
 70
     0
  3
ISO double-dash triple-dot __ __ . . . __ __ . 
 72
    65
 73
    10
 40
1.5399999999999989
 49
0.47
 49
-0.12
 49
0.47
 49
-0.12
 49
0.0
 49
-0.12
 49
0.0
 49
-0.12
 49
0.0
 49
-0.12
  0
LTYPE
  2
FENCELINE1
 70
     0
  3
Fenceline circle ----0-----0----0-----0----0---
 72
    65
 73
     4
 40
1.45
 49
0.25
 49
-0.1
 49
-0.1
 49
1.0
  0
LTYPE
  2
FENCELINE2
 70
     0
  3
Fenceline square ----[]-----[]----[]-----[]----
 72
    65
 73
     4
 40
1.45
 49
0.25
 49
-0.1
 49
-0.1
 49
1.0
  0
LTYPE
  2
TRACKS
 70
     0
  3
Tracks -|-|-|-|-|-|-|-|-|-|-|-|-|-|-|-|-|-|-|-|
 72
    65
 73
     2
 40
0.3
 49
0.15
 49
0.15
  0
LTYPE
  2
BATTING
 70
     0
  3
Batting SSSSSSSSSSSSSSSSSSSSSSSSSSSSSSSSSSSSSSS
 72
    65
 73
     4
 40
0.4001000000000001
 49
0.0001
 49
-0.1
 49
-0.2
 49
-0.1
  0
LTYPE
  2
HOT_WATER_SUPPLY
 70
     0
  3
Hot water supply ---- HW ---- HW ---- HW ----
 72
    65
 73
     3
 40
0.9
 49
0.5
 49
-0.2
 49
-0.2
  0
LTYPE
  2
GAS_LINE
 70
     0
  3
Gas line ----GAS----GAS----GAS----GAS----GAS---
 72
    65
 73
     3
 40
0.95
 49
0.5
 49
-0.2
 49
-0.25
  0
LTYPE
  2
ZIGZAG
 70
     0
  3
Zig zag /\/\/\/\/\/\/\/\/\/\/\/\/\/\/\/\/\/\/\/
 72
    65
 73
     4
 40
0.8001000000000001
 49
0.0001
 49
-0.2
 49
-0.4
 49
-0.2
  0
ENDTAB
  0
TABLE
  2
LAYER
 70
     1
  0
LAYER
  2
0
 70
     0
 62
     7
  6
CONTINUOUS
  0
ENDTAB
  0
TABLE
  2
STYLE
 70
     3
  0
STYLE
  2
STANDARD
 70
     0
 40
0.0
 41
1.0
 50
0.0
 71
     0
 42
0.2
  3
txt
  4

  0
STYLE
  2
ANNOTATIVE
 70
     0
 40
0.0
 41
1.0
 50
0.0
 71
     0
 42
0.2
  3
txt
  4

  0
STYLE
  2

 70
     1
 40
0.0
 41
1.0
 50
0.0
 71
     0
 42
0.2
  3
ltypeshp.shx
  4

  0
ENDTAB
  0
TABLE
  2
VIEW
 70
     0
  0
ENDTAB
  0
TABLE
  2
UCS
 70
     0
  0
ENDTAB
  0
TABLE
  2
APPID
 70
     3
  0
APPID
  2
ACAD
 70
     0
  0
APPID
  2
ACADANNOTATIVE
 70
     0
  0
APPID
  2
ACAD_MLEADERVER
 70
     0
  0
ENDTAB
  0
TABLE
  2
DIMSTYLE
 70
     2
  0
DIMSTYLE
  2
STANDARD
 70
     0
  3

  4

  5

  6

  7

 40
1.0
 41
0.18
 42
0.0625
 43
0.38
 44
0.18
 45
0.0
 46
0.0
 47
0.0
 48
0.0
140
0.18
141
0.09
142
0.0
143
25.399999999999999
144
1.0
145
0.0
146
1.0
147
0.09
 71
     0
 72
     0
 73
     1
 74
     1
 75
     0
 76
     0
 77
     0
 78
     0
170
     0
171
     2
172
     0
173
     0
174
     0
175
     0
176
     0
177
     0
178
     0
  0
DIMSTYLE
  2
ANNOTATIVE
 70
     0
  3

  4

  5

  6

  7

 40
1.0
 41
0.18
 42
0.0625
 43
0.38
 44
0.18
 45
0.0
 46
0.0
 47
0.0
 48
0.0
140
0.18
141
0.09
142
0.0
143
25.399999999999999
144
1.0
145
0.0
146
1.0
147
0.09
 71
     0
 72
     0
 73
     1
 74
     1
 75
     0
 76
     0
 77
     0
 78
     0
170
     0
171
     2
172
     0
173
     0
174
     0
175
     0
176
     0
177
     0
178
     0
  0
ENDTAB
  0
ENDSEC
  0
SECTION
  2
BLOCKS
  0
BLOCK
  8
0
  2
$MODEL_SPACE
 70
     0
 10
0.0
 20
0.0
 30
0.0
  3
$MODEL_SPACE
  1

  0
ENDBLK
  5
73
  8
0
  0
BLOCK
 67
     1
  8
0
  2
$PAPER_SPACE
 70
     0
 10
0.0
 20
0.0
 30
0.0
  3
$PAPER_SPACE
  1

  0
ENDBLK
  5
6F
 67
     1
  8
0
  0
ENDSEC
  0
SECTION
  2
ENTITIES
  0
POLYLINE
  5
B7
  8
0
 66
     1
 10
0.0
 20
0.0
 30
0.0
 70
     1
  0
VERTEX
  5
B8
  8
0
 10
-52.942379720800908
 20
87.082851906260032
 30
0.0
  0
VERTEX
  5
B9
  8
0
 10
-80.386406975066777
 20
87.082851906260046
 30
0.0
 42
-0.5773502691896287
  0
VERTEX
  5
BB
  8
0
 10
-81.425637459608083
 20
88.882851906260044
 30
0.0
  0
VERTEX
  5
BC
  8
0
 10
-67.703623832475145
 20
112.6500766906067
 30
0.0
 42
-0.5773502691896211
  0
VERTEX
  5
BD
  8
0
 10
-65.625162863392518
 20
112.6500766906067
 30
0.0
  0
VERTEX
  5
BE
  8
0
 10
-51.903149236259623
 20
88.882851906260015
 30
0.0
 42
-0.5773502691896275
  0
SEQEND
  5
BA
  8
0
  0
POLYLINE
  5
C0
  8
0
 66
     1
 10
0.0
 20
0.0
 30
0.0
 70
     1
  0
VERTEX
  5
C1
  8
0
 10
-80.389620279589479
 20
86.12049679981385
 30
0.0
  0
VERTEX
  5
C2
  8
0
 10
-52.945593024971068
 20
86.120496799813836
 30
0.0
 42
-0.5773502691896293
  0
VERTEX
  5
C4
  8
0
 10
-51.906362540416389
 20
84.320496799790703
 30
0.0
  0
VERTEX
  5
C5
  8
0
 10
-65.628376167725605
 20
60.553272015138667
 30
0.0
 42
-0.5773502691896201
  0
VERTEX
  5
C6
  8
0
 10
-67.706837136834949
 20
60.553272015138681
 30
0.0
  0
VERTEX
  5
C7
  8
0
 10
-81.428850764144144
 20
84.320496799790732
 30
0.0
 42
-0.5773502691896281
  0
SEQEND
  5
C3
  8
0
  0
POLYLINE
  5
C8
  8
0
 66
     1
 10
0.0
 20
0.0
 30
0.0
 70
     1
  0
VERTEX
  5
C9
  8
0
 10
-102.9418797215567
 20
0.5080198218540044
 30
0.0
  0
VERTEX
  5
CA
  8
0
 10
-130.38590697582259
 20
0.508019822585446
 30
0.0
 42
-0.57735026919851
  0
VERTEX
  5
CC
  8
0
 10
-131.42513746031591
 20
2.3080198226131401
 30
0.0
  0
VERTEX
  5
CD
  8
0
 10
-117.70312383254949
 20
26.075244606594129
 30
0.0
 42
-0.5773502691896189
  0
VERTEX
  5
CE
  8
0
 10
-115.6246628634669
 20
26.07524460653876
 30
0.0
  0
VERTEX
  5
CF
  8
0
 10
-101.90264923696751
 20
2.3080198218262811
 30
0.0
 42
-0.5773502691807396
  0
SEQEND
  5
CB
  8
0
  0
POLYLINE
  5
D0
  8
0
 66
     1
 10
0.0
 20
0.0
 30
0.0
 70
     1
  0
VERTEX
  5
D1
  8
0
 10
-113.7071228880485
 20
28.37524460655839
 30
0.0
  0
VERTEX
  5
D2
  8
0
 10
-86.263095633360408
 20
28.37524460655839
 30
0.0
 42
-0.577350269189626
  0
VERTEX
  5
D4
  8
0
 10
-85.223865148803085
 20
26.575244606530688
 30
0.0
  0
VERTEX
  5
D5
  8
0
 10
-98.94587877614714
 20
2.808019821818259
 30
0.0
 42
-0.5773502691896237
  0
VERTEX
  5
D6
  8
0
 10
-101.0243397452618
 20
2.808019821818263
 30
0.0
  0
VERTEX
  5
D7
  8
0
 10
-114.7463533726058
 20
26.57524460653072
 30
0.0
 42
-0.577350269189626
  0
SEQEND
  5
D3
  8
0
  0
POLYLINE
  5
D8
  8
0
 66
     1
 10
0.0
 20
0.0
 30
0.0
 70
     1
  0
VERTEX
  5
D9
  8
0
 10
-97.056120279088404
 20
57.215627122239212
 30
0.0
  0
VERTEX
  5
DA
  8
0
 10
-69.612093024400266
 20
57.215627122239212
 30
0.0
 42
-0.5773502691896271
  0
VERTEX
  5
DC
  8
0
 10
-68.572862539842944
 20
55.415627122211511
 30
0.0
  0
VERTEX
  5
DD
  8
0
 10
-82.294876167186985
 20
31.648402337499078
 30
0.0
 42
-0.5773502691896236
  0
VERTEX
  5
DE
  8
0
 10
-84.373337136301643
 20
31.648402337499089
 30
0.0
  0
VERTEX
  5
DF
  8
0
 10
-98.095350763645683
 20
55.415627122211532
 30
0.0
 42
-0.577350269189626
  0
SEQEND
  5
DB
  8
0
  0
POLYLINE
  5
E0
  8
0
 66
     1
 10
0.0
 20
0.0
 30
0.0
 70
     1
  0
VERTEX
  5
E1
  8
0
 10
-63.7231202796589
 20
57.253272015466052
 30
0.0
  0
VERTEX
  5
E2
  8
0
 10
-36.279093024977797
 20
57.253272015466067
 30
0.0
 42
-0.5773502691896276
  0
VERTEX
  5
E4
  8
0
 10
-35.239862540420752
 20
55.453272015438841
 30
0.0
  0
VERTEX
  5
E5
  8
0
 10
-48.961876167761297
 20
31.686047230732491
 30
0.0
 42
-0.577350269189622
  0
VERTEX
  5
E6
  8
0
 10
-51.04033713687538
 20
31.686047230732498
 30
0.0
  0
VERTEX
  5
E7
  8
0
 10
-64.762350764215938
 20
55.453272015438841
 30
0.0
 42
-0.5773502691896276
  0
SEQEND
  5
E3
  8
0
  0
POLYLINE
  5
E8
  8
0
 66
     1
 10
0.0
 20
0.0
 30
0.0
 70
     1
  0
VERTEX
  5
E9
  8
0
 10
-2.942879721557476
 20
0.4811775528542573
 30
0.0
  0
VERTEX
  5
EA
  8
0
 10
-30.386906975823319
 20
0.4811775535856988
 30
0.0
 42
-0.5773502691985094
  0
VERTEX
  5
EC
  8
0
 10
-31.426137460316689
 20
2.2811775536133929
 30
0.0
  0
VERTEX
  5
ED
  8
0
 10
-17.704123832550309
 20
26.048402337594389
 30
0.0
 42
-0.5773502691896225
  0
VERTEX
  5
EE
  8
0
 10
-15.625662863467671
 20
26.048402337538999
 30
0.0
  0
VERTEX
  5
EF
  8
0
 10
-1.903649236968201
 20
2.2811775528265339
 30
0.0
 42
-0.57735026918074
  0
SEQEND
  5
EB
  8
0
  0
POLYLINE
  5
F0
  8
0
 66
     1
 10
0.0
 20
0.0
 30
0.0
 70
     1
  0
VERTEX
  5
F1
  8
0
 10
-80.389620279152822
 20
28.348402337558952
 30
0.0
  0
VERTEX
  5
F2
  8
0
 10
-52.945593024464671
 20
28.34840233755898
 30
0.0
 42
-0.5773502691896271
  0
VERTEX
  5
F4
  8
0
 10
-51.906362539907349
 20
26.548402337531279
 30
0.0
  0
VERTEX
  5
F5
  8
0
 10
-65.628376167251389
 20
2.7811775528188321
 30
0.0
 42
-0.5773502691896213
  0
VERTEX
  5
F6
  8
0
 10
-67.706837136366019
 20
2.7811775528188361
 30
0.0
  0
VERTEX
  5
F7
  8
0
 10
-81.428850763710074
 20
26.548402337531279
 30
0.0
 42
-0.577350269189626
  0
SEQEND
  5
F3
  8
0
  0
POLYLINE
  5
F8
  8
0
 66
     1
 10
0.0
 20
0.0
 30
0.0
 70
     1
  0
VERTEX
  5
F9
  8
0
 10
-36.2790930236633
 20
0.48117755358569
 30
0.0
  0
VERTEX
  5
FA
  8
0
 10
-63.723120277929141
 20
0.4811775528542484
 30
0.0
 42
-0.5773502691807443
  0
VERTEX
  5
FC
  8
0
 10
-64.762350762518423
 20
2.281177552826557
 30
0.0
  0
VERTEX
  5
FD
  8
0
 10
-51.040337136018948
 20
26.048402337538981
 30
0.0
 42
-0.5773502691896255
  0
VERTEX
  5
FE
  8
0
 10
-48.961876166936307
 20
26.048402337594379
 30
0.0
  0
VERTEX
  5
FF
  8
0
 10
-35.23986253916997
 20
2.2811775536133712
 30
0.0
 42
-0.5773502691985103
  0
SEQEND
  5
FB
  8
0
  0
POLYLINE
  5
100
  8
0
 66
     1
 10
0.0
 20
0.0
 30
0.0
 70
     1
  0
VERTEX
  5
101
  8
0
 10
-47.056620279666703
 20
28.34840233755898
 30
0.0
  0
VERTEX
  5
102
  8
0
 10
-19.61259302497858
 20
28.34840233755898
 30
0.0
 42
-0.5773502691896264
  0
VERTEX
  5
104
  8
0
 10
-18.57336254042125
 20
26.548402337531279
 30
0.0
  0
VERTEX
  5
105
  8
0
 10
-32.295376167765312
 20
2.7811775528188489
 30
0.0
 42
-0.5773502691896213
  0
VERTEX
  5
106
  8
0
 10
-34.373837136879942
 20
2.7811775528188538
 30
0.0
  0
VERTEX
  5
107
  8
0
 10
-48.095850764224011
 20
26.548402337531311
 30
0.0
 42
-0.5773502691896246
  0
SEQEND
  5
103
  8
0
  0
POLYLINE
  5
108
  8
0
 66
     1
 10
0.0
 20
0.0
 30
0.0
 70
     1
  0
VERTEX
  5
109
  8
0
 10
-19.609379720800931
 20
29.3484023375667
 30
0.0
  0
VERTEX
  5
10A
  8
0
 10
-47.053406975066757
 20
29.3484023375667
 30
0.0
 42
-0.5773502691896264
  0
VERTEX
  5
10C
  8
0
 10
-48.092637459608113
 20
31.148402337566701
 30
0.0
  0
VERTEX
  5
10D
  8
0
 10
-34.370623832475182
 20
54.915627121913417
 30
0.0
 42
-0.577350269189624
  0
VERTEX
  5
10E
  8
0
 10
-32.292162863392541
 20
54.915627121913403
 30
0.0
  0
VERTEX
  5
10F
  8
0
 10
-18.570149236259621
 20
31.148402337566669
 30
0.0
 42
-0.5773502691896254
  0
SEQEND
  5
10B
  8
0
  0
POLYLINE
  5
110
  8
0
 66
     1
 10
0.0
 20
0.0
 30
0.0
 70
     1
  0
VERTEX
  5
111
  8
0
 10
-52.928488981447828
 20
29.318777266075301
 30
0.0
  0
VERTEX
  5
112
  8
0
 10
-80.372516235713661
 20
29.318777265709599
 30
0.0
 42
-0.5773502691851828
  0
VERTEX
  5
114
  8
0
 10
-81.411746720278984
 20
31.118777265695741
 30
0.0
  0
VERTEX
  5
115
  8
0
 10
-67.689733093462777
 20
54.886002050225301
 30
0.0
 42
-0.5773502691896211
  0
VERTEX
  5
116
  8
0
 10
-65.61127212438015
 20
54.886002050252998
 30
0.0
  0
VERTEX
  5
117
  8
0
 10
-51.889258496930509
 20
31.118777266089129
 30
0.0
 42
-0.5773502691940667
  0
SEQEND
  5
113
  8
0
  0
POLYLINE
  5
118
  8
0
 66
     1
 10
0.0
 20
0.0
 30
0.0
 70
     1
  0
VERTEX
  5
119
  8
0
 10
-69.608879720800914
 20
0.481177553220018
 30
0.0
  0
VERTEX
  5
11A
  8
0
 10
-97.052906975066762
 20
0.4811775532200269
 30
0.0
 42
-0.5773502691896276
  0
VERTEX
  5
11C
  8
0
 10
-98.092137459608111
 20
2.281177553220028
 30
0.0
  0
VERTEX
  5
11D
  8
0
 10
-84.370123832475187
 20
26.048402337566738
 30
0.0
 42
-0.5773502691896199
  0
VERTEX
  5
11E
  8
0
 10
-82.291662863392531
 20
26.048402337566738
 30
0.0
  0
VERTEX
  5
11F
  8
0
 10
-68.569649236259608
 20
2.2811775532199969
 30
0.0
 42
-0.5773502691896258
  0
SEQEND
  5
11B
  8
0
  0
POLYLINE
  5
120
  8
0
 66
     1
 10
0.0
 20
0.0
 30
0.0
 70
     1
  0
VERTEX
  5
121
  8
0
 10
-86.278593024867874
 20
29.348402337900222
 30
0.0
  0
VERTEX
  5
122
  8
0
 10
-113.72262027913369
 20
29.348402337900229
 30
0.0
 42
-0.5773502691896276
  0
VERTEX
  5
124
  8
0
 10
-114.761850763675
 20
31.148402337900229
 30
0.0
  0
VERTEX
  5
125
  8
0
 10
-101.0398371365421
 20
54.915627122246931
 30
0.0
 42
-0.577350269189622
  0
VERTEX
  5
126
  8
0
 10
-98.961376167459491
 20
54.915627122246917
 30
0.0
  0
VERTEX
  5
127
  8
0
 10
-85.239362540326596
 20
31.148402337900201
 30
0.0
 42
-0.5773502691896276
  0
SEQEND
  5
123
  8
0
  0
POLYLINE
  5
128
  8
0
 66
     1
 10
0.0
 20
0.0
 30
0.0
 70
     1
  0
VERTEX
  5
129
  8
0
 10
-69.608879720800928
 20
58.215627121913371
 30
0.0
  0
VERTEX
  5
12A
  8
0
 10
-97.052906975066762
 20
58.215627121913379
 30
0.0
 42
-0.5773502691896267
  0
VERTEX
  5
12C
  8
0
 10
-98.092137459608111
 20
60.015627121913383
 30
0.0
  0
VERTEX
  5
12D
  8
0
 10
-84.370123832475187
 20
83.782851906260092
 30
0.0
 42
-0.5773502691896199
  0
VERTEX
  5
12E
  8
0
 10
-82.291662863392531
 20
83.782851906260092
 30
0.0
  0
VERTEX
  5
12F
  8
0
 10
-68.569649236259622
 20
60.015627121913347
 30
0.0
 42
-0.5773502691896254
  0
SEQEND
  5
12B
  8
0
  0
POLYLINE
  5
130
  8
0
 66
     1
 10
0.0
 20
0.0
 30
0.0
 70
     1
  0
VERTEX
  5
131
  8
0
 10
-36.27909302514734
 20
58.253272015102731
 30
0.0
  0
VERTEX
  5
132
  8
0
 10
-63.72312027941318
 20
58.253272015102731
 30
0.0
 42
-0.5773502691896254
  0
VERTEX
  5
134
  8
0
 10
-64.762350763954515
 20
60.053272015102728
 30
0.0
  0
VERTEX
  5
135
  8
0
 10
-51.040337136821577
 20
83.820496799449444
 30
0.0
 42
-0.5773502691896211
  0
VERTEX
  5
136
  8
0
 10
-48.961876167738943
 20
83.820496799449444
 30
0.0
  0
VERTEX
  5
137
  8
0
 10
-35.239862540606033
 20
60.053272015102699
 30
0.0
 42
-0.5773502691896254
  0
SEQEND
  5
133
  8
0
  0
POLYLINE
  5
138
  8
0
 66
     1
 10
0.0
 20
0.0
 30
0.0
 70
     1
  0
VERTEX
  5
139
  8
0
 10
-69.264076211353327
 20
116.9688991373867
 30
0.0
  0
VERTEX
  5
13A
  8
0
 10
-135.93007621135331
 20
1.5000000000000031
 30
0.0
 42
0.5773502691896258
  0
VERTEX
  5
13C
  8
0
 10
-133.33199999999999
 20
-3.0
 30
0.0
  0
VERTEX
  5
13D
  8
0
 10
0.0
 20
-3.0000000000000022
 30
0.0
 42
0.5773502691896258
  0
VERTEX
  5
13E
  8
0
 10
2.5980762113533191
 20
1.5
 30
0.0
  0
VERTEX
  5
13F
  8
0
 10
-64.067923788646212
 20
116.9688991373859
 30
0.0
 42
0.5773502691897241
  0
SEQEND
  5
13B
  8
0
  0
CIRCLE
  5
140
  8
0
 10
-83.332499999999996
 20
28.867224784346678
 30
0.0
 40
1.5
  0
CIRCLE
  5
141
  8
0
 10
-99.998999999999995
 20
57.734449568693371
 30
0.0
 40
1.5
  0
CIRCLE
  5
142
  8
0
 10
-49.999500000000012
 20
86.601674353040025
 30
0.0
 40
1.5
  0
CIRCLE
  5
143
  8
0
 10
-16.666499999999999
 20
28.867224784346678
 30
0.0
 40
1.5
  0
CIRCLE
  5
144
  8
0
 10
-49.999499999999998
 20
28.867224784346678
 30
0.0
 40
1.5
  0
CIRCLE
  5
145
  8
0
 10
-116.66549999999999
 20
28.867224784346678
 30
0.0
 40
1.5
  0
CIRCLE
  5
146
  8
0
 10
-66.666000000000011
 20
115.4688991373867
 30
0.0
 40
1.5
  0
CIRCLE
  5
147
  8
0
 10
-133.33199999999999
 20
0.0000000000000003
 30
0.0
 40
1.5
  0
CIRCLE
  5
148
  8
0
 10
-0.0000000000000006
 20
0.0000000000000002
 30
0.0
 40
1.5
  0
CIRCLE
  5
149
  8
0
 10
-99.998999999999981
 20
0.0000000000000003
 30
0.0
 40
1.5
  0
CIRCLE
  5
14A
  8
0
 10
-66.665999999999997
 20
0.0000000000000002
 30
0.0
 40
1.5
  0
CIRCLE
  5
14B
  8
0
 10
-33.332999999999998
 20
0.0000000000000002
 30
0.0
 40
1.5
  0
CIRCLE
  5
14C
  8
0
 10
-33.333000000000013
 20
57.734449568693371
 30
0.0
 40
1.5
  0
CIRCLE
  5
14D
  8
0
 10
-83.332499999999996
 20
86.601674353040025
 30
0.0
 40
1.5
  0
CIRCLE
  5
14E
  8
0
 10
-66.665999999999997
 20
57.73444956869335
 30
0.0
 40
1.5
  0
ENDSEC
  0
EOF
