  0
SECTION
  2
HEADER
  9
$ACADVER
  1
AC1009
  9
$INSBASE
 10
0.0
 20
0.0
 30
0.0
  9
$EXTMIN
 10
0.0
 20
0.0
 30
0.0
  9
$EXTMAX
 10
187.76013270094811
 20
190.76929995889489
 30
0.0
  9
$LIMMIN
 10
0.0
 20
0.0
  9
$LIMMAX
 10
187.76013270094811
 20
190.76929995889489
  9
$ORTHOMODE
 70
     0
  9
$REGENMODE
 70
     1
  9
$FILLMODE
 70
     1
  9
$QTEXTMODE
 70
     0
  9
$MIRRTEXT
 70
     0
  9
$DRAGMODE
 70
     2
  9
$LTSCALE
 40
1.0
  9
$OSMODE
 70
     0
  9
$ATTMODE
 70
     1
  9
$TEXTSIZE
 40
0.2
  9
$TRACEWID
 40
0.05
  9
$TEXTSTYLE
  7
STANDARD
  9
$CLAYER
  8
0
  9
$CELTYPE
  6
BYLAYER
  9
$CECOLOR
 62
   256
  9
$DIMSCALE
 40
1.0
  9
$DIMASZ
 40
1.7999999999999989
  9
$DIMEXO
 40
0.0625
  9
$DIMDLI
 40
0.38
  9
$DIMRND
 40
0.0
  9
$DIMDLE
 40
0.0
  9
$DIMEXE
 40
0.18
  9
$DIMTP
 40
0.0
  9
$DIMTM
 40
0.0
  9
$DIMTXT
 40
1.7999999999999989
  9
$DIMCEN
 40
0.09
  9
$DIMTSZ
 40
0.0
  9
$DIMTOL
 70
     0
  9
$DIMLIM
 70
     0
  9
$DIMTIH
 70
     1
  9
$DIMTOH
 70
     1
  9
$DIMSE1
 70
     0
  9
$DIMSE2
 70
     0
  9
$DIMTAD
 70
     0
  9
$DIMZIN
 70
     0
  9
$DIMBLK
  1

  9
$DIMASO
 70
     1
  9
$DIMSHO
 70
     1
  9
$DIMPOST
  1

  9
$DIMAPOST
  1

  9
$DIMALT
 70
     0
  9
$DIMALTD
 70
     2
  9
$DIMALTF
 40
25.399999999999999
  9
$DIMLFAC
 40
1.0
  9
$DIMTOFL
 70
     0
  9
$DIMTVP
 40
0.0
  9
$DIMTIX
 70
     0
  9
$DIMSOXD
 70
     0
  9
$DIMSAH
 70
     0
  9
$DIMBLK1
  1

  9
$DIMBLK2
  1

  9
$DIMSTYLE
  2
STANDARD
  9
$DIMCLRD
 70
     0
  9
$DIMCLRE
 70
     0
  9
$DIMCLRT
 70
     0
  9
$DIMTFAC
 40
1.0
  9
$DIMGAP
 40
0.09
  9
$LUNITS
 70
     2
  9
$LUPREC
 70
     4
  9
$SKETCHINC
 40
0.1
  9
$FILLETRAD
 40
0.0
  9
$AUNITS
 70
     0
  9
$AUPREC
 70
     0
  9
$MENU
  1
.
  9
$ELEVATION
 40
0.0
  9
$PELEVATION
 40
0.0
  9
$THICKNESS
 40
0.0
  9
$LIMCHECK
 70
     0
  9
$BLIPMODE
 70
     0
  9
$CHAMFERA
 40
0.0
  9
$CHAMFERB
 40
0.0
  9
$SKPOLY
 70
     0
  9
$TDCREATE
 40
2456375.2264604862
  9
$TDUPDATE
 40
2456375.2264604862
  9
$TDINDWG
 40
0.0000084491
  9
$TDUSRTIMER
 40
0.0000084491
  9
$USRTIMER
 70
     1
  9
$ANGBASE
 50
0.0
  9
$ANGDIR
 70
     0
  9
$PDMODE
 70
     0
  9
$PDSIZE
 40
0.0
  9
$PLINEWID
 40
0.0
  9
$COORDS
 70
     0
  9
$SPLFRAME
 70
     0
  9
$SPLINETYPE
 70
     6
  9
$SPLINESEGS
 70
     8
  9
$ATTDIA
 70
     0
  9
$ATTREQ
 70
     1
  9
$HANDLING
 70
     1
  9
$HANDSEED
  5
1B5
  9
$SURFTAB1
 70
     6
  9
$SURFTAB2
 70
     6
  9
$SURFTYPE
 70
     6
  9
$SURFU
 70
     6
  9
$SURFV
 70
     6
  9
$UCSNAME
  2

  9
$UCSORG
 10
0.0
 20
0.0
 30
0.0
  9
$UCSXDIR
 10
1.0
 20
0.0
 30
0.0
  9
$UCSYDIR
 10
0.0
 20
1.0
 30
0.0
  9
$PUCSNAME
  2

  9
$PUCSORG
 10
0.0
 20
0.0
 30
0.0
  9
$PUCSXDIR
 10
1.0
 20
0.0
 30
0.0
  9
$PUCSYDIR
 10
0.0
 20
1.0
 30
0.0
  9
$USERI1
 70
     0
  9
$USERI2
 70
     0
  9
$USERI3
 70
     0
  9
$USERI4
 70
     0
  9
$USERI5
 70
     0
  9
$USERR1
 40
0.0
  9
$USERR2
 40
0.0
  9
$USERR3
 40
0.0
  9
$USERR4
 40
0.0
  9
$USERR5
 40
0.0
  9
$WORLDVIEW
 70
     1
  9
$SHADEDGE
 70
     3
  9
$SHADEDIF
 70
    70
  9
$TILEMODE
 70
     1
  9
$MAXACTVP
 70
    64
  9
$PLIMCHECK
 70
     0
  9
$PEXTMIN
 10
0.0
 20
0.0
 30
0.0
  9
$PEXTMAX
 10
187.76013270094811
 20
190.76929995889489
 30
0.0
  9
$PLIMMIN
 10
0.0
 20
0.0
  9
$PLIMMAX
 10
187.76013270094811
 20
190.76929995889489
  9
$UNITMODE
 70
     0
  9
$VISRETAIN
 70
     1
  9
$PLINEGEN
 70
     0
  9
$PSLTSCALE
 70
     1
  0
ENDSEC
  0
SECTION
  2
TABLES
  0
TABLE
  2
VPORT
 70
     1
  0
VPORT
  2
*ACTIVE
 70
     0
 10
0.0
 20
0.0
 11
1.0
 21
1.0
 12
52.972151555026919
 22
44.941668729868212
 13
0.0
 23
0.0
 14
1.0
 24
1.0
 15
0.0
 25
0.0
 16
0.0
 26
0.0
 36
1.0
 17
0.0
 27
0.0
 37
0.0
 40
190.76929995889489
 41
0.9842261450946498
 42
50.0
 43
0.0
 44
0.0
 50
0.0
 51
0.0
 71
     0
 72
   100
 73
     1
 74
     1
 75
     0
 76
     0
 77
     0
 78
     0
  0
ENDTAB
  0
TABLE
  2
LTYPE
 70
    59
  0
LTYPE
  2
CONTINUOUS
 70
     0
  3
Solid line
 72
    65
 73
     0
 40
0.0
  0
LTYPE
  2
PHANTOM2
 70
     0
  3
Phantom (.5x) ___ _ _ ___ _ _ ___ _ _ ___ _ _
 72
    65
 73
     6
 40
1.25
 49
0.625
 49
-0.125
 49
0.125
 49
-0.125
 49
0.125
 49
-0.125
  0
LTYPE
  2
BY_STANDARD
 70
     0
  3
By Standard ____________    ____    ____   _
 72
    65
 73
     6
 40
1.2402999999999991
 49
0.6614
 49
-0.0827
 49
0.1654
 49
-0.0827
 49
0.1654
 49
-0.0827
  0
LTYPE
  2
CHAIN
 70
     0
  3
Chain ____ _ ____ _ ____ _ ____ _ ____ _ ____
 72
    65
 73
     4
 40
0.7087
 49
0.4724000000000001
 49
-0.0591
 49
0.1181
 49
-0.0591
  0
LTYPE
  2
DASH_DOT
 70
     0
  3
Dash dot __ . __ . __ . __ . __ . __ . __ . __
 72
    65
 73
     4
 40
0.37
 49
0.24
 49
-0.06
 49
0.01
 49
-0.06
  0
LTYPE
  2
DOUBLE_DASH_DOT
 70
     0
  3
Double-Dash Dot __ __ . __ __ . __ __ . __ _
 72
    65
 73
     6
 40
0.4398
 49
0.24
 49
-0.06
 49
0.0098
 49
-0.06
 49
0.01
 49
-0.06
  0
LTYPE
  2
DASH_TRIPLE_DOT
 70
     0
  3
Dash Triple-Dot _ . . . _ . . . _ . . . _
 72
    65
 73
     8
 40
0.51
 49
0.24
 49
-0.06
 49
0.01
 49
-0.06
 49
0.01
 49
-0.06
 49
0.01
 49
-0.06
  0
LTYPE
  2
DASHED
 70
     0
  3
Dashed __ __ __ __ __ __ __ __ __ __ __ __ __ _
 72
    65
 73
     2
 40
0.2067
 49
0.1654
 49
-0.0413
  0
LTYPE
  2
DASH_DOUBLE_DOT
 70
     0
  3
Dash Double-Dot __ . . __ . . __ . . __ . .
 72
    65
 73
     6
 40
0.4398
 49
0.24
 49
-0.06
 49
0.0098
 49
-0.06
 49
0.01
 49
-0.06
  0
LTYPE
  2
DASHED_SPACE
 70
     0
  3
Dashed Space __ __ __ __ __ __ __ __ __ __ __ _
 72
    65
 73
     2
 40
0.2067
 49
0.1654
 49
-0.0413
  0
LTYPE
  2
DOTTED
 70
     0
  3
Dotted . . . . . . . . . . . . . . . . . . . . 
 72
    65
 73
     2
 40
0.0482
 49
0.0069
 49
-0.0413
  0
LTYPE
  2
DOUBLE_DASH_CHAIN
 70
     0
  3
Double-Dash Chain ______  __  __  ______  __  _
 72
    65
 73
     6
 40
1.2402999999999991
 49
0.6614
 49
-0.0827
 49
0.1654
 49
-0.0827
 49
0.1654
 49
-0.0827
  0
LTYPE
  2
DOUBLE_DASH_DOUBLE_DOT
 70
     0
  3
Double-Dash Double-dot _ _ . . _ _ . . _
 72
    65
 73
     8
 40
0.7400000000000001
 49
0.24
 49
-0.06
 49
0.24
 49
-0.06
 49
0.01
 49
-0.06
 49
0.01
 49
-0.06
  0
LTYPE
  2
DOUBLE_DASH_TRIPLE_DOT
 70
     0
  3
Double Dash Triple Dot __ __ . . . __ __ . .
 72
    65
 73
    10
 40
0.8100000000000001
 49
0.24
 49
-0.06
 49
0.24
 49
-0.06
 49
0.01
 49
-0.06
 49
0.01
 49
-0.06
 49
0.01
 49
-0.06
  0
LTYPE
  2
LONG_DASH_DOTTED
 70
     0
  3
Long Dash Dotted ____ . ____ . ____ . ____ . _
 72
    65
 73
     4
 40
0.3543
 49
0.2362
 49
-0.0295
 49
0.0591
 49
-0.0295
  0
LTYPE
  2
LONG_DASH_DOUBLE_DOT
 70
     0
  3
Long Dash Double Dot ________  .  .  ________  
 72
    65
 73
     6
 40
0.6799999999999999
 49
0.48
 49
-0.06
 49
0.01
 49
-0.06
 49
0.01
 49
-0.06
  0
LTYPE
  2
LONG_DASH_TRIPLE_DOT
 70
     0
  3
Long Dash Triple Dot ____ ... ____ ... ____
 72
    65
 73
     8
 40
0.3689
 49
0.2362
 49
-0.0295
 49
0.0049
 49
-0.0295
 49
0.0049
 49
-0.0295
 49
0.0049
 49
-0.0295
  0
LTYPE
  2
BORDER
 70
     0
  3
Border __ __ . __ __ . __ __ . __ __ . __ __ .
 72
    65
 73
     6
 40
1.75
 49
0.5
 49
-0.25
 49
0.5
 49
-0.25
 49
0.0
 49
-0.25
  0
LTYPE
  2
BORDER2
 70
     0
  3
Border (.5x) __.__.__.__.__.__.__.__.__.__.__.
 72
    65
 73
     6
 40
0.875
 49
0.25
 49
-0.125
 49
0.25
 49
-0.125
 49
0.0
 49
-0.125
  0
LTYPE
  2
BORDERX2
 70
     0
  3
Border (2x) ____  ____  .  ____  ____  .  ___
 72
    65
 73
     6
 40
3.5
 49
1.0
 49
-0.5
 49
1.0
 49
-0.5
 49
0.0
 49
-0.5
  0
LTYPE
  2
CENTER
 70
     0
  3
Center ____ _ ____ _ ____ _ ____ _ ____ _ ____
 72
    65
 73
     4
 40
2.0
 49
1.25
 49
-0.25
 49
0.25
 49
-0.25
  0
LTYPE
  2
CENTER2
 70
     0
  3
Center (.5x) ___ _ ___ _ ___ _ ___ _ ___ _ ___
 72
    65
 73
     4
 40
1.125
 49
0.75
 49
-0.125
 49
0.125
 49
-0.125
  0
LTYPE
  2
CENTERX2
 70
     0
  3
Center (2x) ________  __  ________  __  _____
 72
    65
 73
     4
 40
4.0
 49
2.5
 49
-0.5
 49
0.5
 49
-0.5
  0
LTYPE
  2
DASHDOT2
 70
     0
  3
Dash dot (.5x) _._._._._._._._._._._._._._._.
 72
    65
 73
     4
 40
0.5
 49
0.25
 49
-0.125
 49
0.0
 49
-0.125
  0
LTYPE
  2
DASHDOTX2
 70
     0
  3
Dash dot (2x) ____  .  ____  .  ____  .  ___
 72
    65
 73
     4
 40
2.0
 49
1.0
 49
-0.5
 49
0.0
 49
-0.5
  0
LTYPE
  2
DASHED2
 70
     0
  3
Dashed (.5x) _ _ _ _ _ _ _ _ _ _ _ _ _ _ _ _ _
 72
    65
 73
     2
 40
0.375
 49
0.25
 49
-0.125
  0
LTYPE
  2
DASHEDX2
 70
     0
  3
Dashed (2x) ____  ____  ____  ____  ____  ___
 72
    65
 73
     2
 40
1.5
 49
1.0
 49
-0.5
  0
LTYPE
  2
DIVIDE
 70
     0
  3
Divide ____ . . ____ . . ____ . . ____ . . ____
 72
    65
 73
     6
 40
1.25
 49
0.5
 49
-0.25
 49
0.0
 49
-0.25
 49
0.0
 49
-0.25
  0
LTYPE
  2
DIVIDE2
 70
     0
  3
Divide (.5x) __..__..__..__..__..__..__..__.._
 72
    65
 73
     6
 40
0.625
 49
0.25
 49
-0.125
 49
0.0
 49
-0.125
 49
0.0
 49
-0.125
  0
LTYPE
  2
DIVIDEX2
 70
     0
  3
Divide (2x) ________  .  .  ________  .  .  _
 72
    65
 73
     6
 40
2.5
 49
1.0
 49
-0.5
 49
0.0
 49
-0.5
 49
0.0
 49
-0.5
  0
LTYPE
  2
DOT
 70
     0
  3
Dot . . . . . . . . . . . . . . . . . . . . . .
 72
    65
 73
     2
 40
0.25
 49
0.0
 49
-0.25
  0
LTYPE
  2
DOT2
 70
     0
  3
Dot (.5x) .....................................
 72
    65
 73
     2
 40
0.125
 49
0.0
 49
-0.125
  0
LTYPE
  2
DOTX2
 70
     0
  3
Dot (2x) .  .  .  .  .  .  .  .  .  .  .  .  . 
 72
    65
 73
     2
 40
0.5
 49
0.0
 49
-0.5
  0
LTYPE
  2
HIDDEN
 70
     0
  3
Hidden __ __ __ __ __ __ __ __ __ __ __ __ __ _
 72
    65
 73
     2
 40
0.375
 49
0.25
 49
-0.125
  0
LTYPE
  2
HIDDEN2
 70
     0
  3
Hidden (.5x) _ _ _ _ _ _ _ _ _ _ _ _ _ _ _ _ _
 72
    65
 73
     2
 40
0.1875
 49
0.125
 49
-0.0625
  0
LTYPE
  2
HIDDENX2
 70
     0
  3
Hidden (2x) ____ ____ ____ ____ ____ ____ ____
 72
    65
 73
     2
 40
0.75
 49
0.5
 49
-0.25
  0
LTYPE
  2
PHANTOM
 70
     0
  3
Phantom ______  __  __  ______  __  __  ______
 72
    65
 73
     6
 40
2.5
 49
1.25
 49
-0.25
 49
0.25
 49
-0.25
 49
0.25
 49
-0.25
  0
LTYPE
  2
PHANTOMX2
 70
     0
  3
Phantom (2x) ____________    ____    ____   _
 72
    65
 73
     6
 40
5.0
 49
2.5
 49
-0.5
 49
0.5
 49
-0.5
 49
0.5
 49
-0.5
  0
LTYPE
  2
ACAD_ISO02W100
 70
     0
  3
ISO dash __ __ __ __ __ __ __ __ __ __ __ __ __
 72
    65
 73
     2
 40
0.59
 49
0.47
 49
-0.12
  0
LTYPE
  2
ACAD_ISO03W100
 70
     0
  3
ISO dash space __    __    __    __    __    __
 72
    65
 73
     2
 40
1.179999999999999
 49
0.47
 49
-0.71
  0
LTYPE
  2
ACAD_ISO04W100
 70
     0
  3
ISO long-dash dot ____ . ____ . ____ . ____ . _
 72
    65
 73
     4
 40
1.179999999999999
 49
0.9399999999999998
 49
-0.12
 49
0.0
 49
-0.12
  0
LTYPE
  2
ACAD_ISO05W100
 70
     0
  3
ISO long-dash double-dot ____ .. ____ .. ____ .
 72
    65
 73
     6
 40
1.2999999999999989
 49
0.9399999999999998
 49
-0.12
 49
0.0
 49
-0.12
 49
0.0
 49
-0.12
  0
LTYPE
  2
ACAD_ISO06W100
 70
     0
  3
ISO long-dash triple-dot ____ ... ____ ... ____
 72
    65
 73
     8
 40
1.419999999999999
 49
0.9399999999999998
 49
-0.12
 49
0.0
 49
-0.12
 49
0.0
 49
-0.12
 49
0.0
 49
-0.12
  0
LTYPE
  2
ACAD_ISO07W100
 70
     0
  3
ISO dot . . . . . . . . . . . . . . . . . . . .
 72
    65
 73
     2
 40
0.12
 49
0.0
 49
-0.12
  0
LTYPE
  2
ACAD_ISO08W100
 70
     0
  3
ISO long-dash short-dash ____ __ ____ __ ____ _
 72
    65
 73
     4
 40
0.95
 49
0.47
 49
-0.12
 49
0.24
 49
-0.12
  0
LTYPE
  2
ACAD_ISO09W100
 70
     0
  3
ISO long-dash double-short-dash ____ __ __ ____
 72
    65
 73
     6
 40
1.3100000000000001
 49
0.47
 49
-0.12
 49
0.24
 49
-0.12
 49
0.24
 49
-0.12
  0
LTYPE
  2
ACAD_ISO10W100
 70
     0
  3
ISO dash dot __ . __ . __ . __ . __ . __ . __ .
 72
    65
 73
     4
 40
0.71
 49
0.47
 49
-0.12
 49
0.0
 49
-0.12
  0
LTYPE
  2
ACAD_ISO11W100
 70
     0
  3
ISO double-dash dot __ __ . __ __ . __ __ . __ 
 72
    65
 73
     6
 40
1.2999999999999989
 49
0.47
 49
-0.12
 49
0.47
 49
-0.12
 49
0.0
 49
-0.12
  0
LTYPE
  2
ACAD_ISO12W100
 70
     0
  3
ISO dash double-dot __ . . __ . . __ . . __ . .
 72
    65
 73
     6
 40
0.8299999999999999
 49
0.47
 49
-0.12
 49
0.0
 49
-0.12
 49
0.0
 49
-0.12
  0
LTYPE
  2
ACAD_ISO13W100
 70
     0
  3
ISO double-dash double-dot __ __ . . __ __ . . 
 72
    65
 73
     8
 40
1.419999999999999
 49
0.47
 49
-0.12
 49
0.47
 49
-0.12
 49
0.0
 49
-0.12
 49
0.0
 49
-0.12
  0
LTYPE
  2
ACAD_ISO14W100
 70
     0
  3
ISO dash triple-dot __ . . . __ . . . __ . . . 
 72
    65
 73
     8
 40
0.95
 49
0.47
 49
-0.12
 49
0.0
 49
-0.12
 49
0.0
 49
-0.12
 49
0.0
 49
-0.12
  0
LTYPE
  2
ACAD_ISO15W100
 70
     0
  3
ISO double-dash triple-dot __ __ . . . __ __ . 
 72
    65
 73
    10
 40
1.5399999999999989
 49
0.47
 49
-0.12
 49
0.47
 49
-0.12
 49
0.0
 49
-0.12
 49
0.0
 49
-0.12
 49
0.0
 49
-0.12
  0
LTYPE
  2
FENCELINE1
 70
     0
  3
Fenceline circle ----0-----0----0-----0----0---
 72
    65
 73
     4
 40
1.45
 49
0.25
 49
-0.1
 49
-0.1
 49
1.0
  0
LTYPE
  2
FENCELINE2
 70
     0
  3
Fenceline square ----[]-----[]----[]-----[]----
 72
    65
 73
     4
 40
1.45
 49
0.25
 49
-0.1
 49
-0.1
 49
1.0
  0
LTYPE
  2
TRACKS
 70
     0
  3
Tracks -|-|-|-|-|-|-|-|-|-|-|-|-|-|-|-|-|-|-|-|
 72
    65
 73
     2
 40
0.3
 49
0.15
 49
0.15
  0
LTYPE
  2
BATTING
 70
     0
  3
Batting SSSSSSSSSSSSSSSSSSSSSSSSSSSSSSSSSSSSSSS
 72
    65
 73
     4
 40
0.4001000000000001
 49
0.0001
 49
-0.1
 49
-0.2
 49
-0.1
  0
LTYPE
  2
HOT_WATER_SUPPLY
 70
     0
  3
Hot water supply ---- HW ---- HW ---- HW ----
 72
    65
 73
     3
 40
0.9
 49
0.5
 49
-0.2
 49
-0.2
  0
LTYPE
  2
GAS_LINE
 70
     0
  3
Gas line ----GAS----GAS----GAS----GAS----GAS---
 72
    65
 73
     3
 40
0.95
 49
0.5
 49
-0.2
 49
-0.25
  0
LTYPE
  2
ZIGZAG
 70
     0
  3
Zig zag /\/\/\/\/\/\/\/\/\/\/\/\/\/\/\/\/\/\/\/
 72
    65
 73
     4
 40
0.8001000000000001
 49
0.0001
 49
-0.2
 49
-0.4
 49
-0.2
  0
ENDTAB
  0
TABLE
  2
LAYER
 70
     1
  0
LAYER
  2
0
 70
     0
 62
     7
  6
CONTINUOUS
  0
ENDTAB
  0
TABLE
  2
STYLE
 70
     3
  0
STYLE
  2
STANDARD
 70
     0
 40
0.0
 41
1.0
 50
0.0
 71
     0
 42
0.2
  3
txt
  4

  0
STYLE
  2
ANNOTATIVE
 70
     0
 40
0.0
 41
1.0
 50
0.0
 71
     0
 42
0.2
  3
txt
  4

  0
STYLE
  2

 70
     1
 40
0.0
 41
1.0
 50
0.0
 71
     0
 42
0.2
  3
ltypeshp.shx
  4

  0
ENDTAB
  0
TABLE
  2
VIEW
 70
     0
  0
ENDTAB
  0
TABLE
  2
UCS
 70
     0
  0
ENDTAB
  0
TABLE
  2
APPID
 70
     3
  0
APPID
  2
ACAD
 70
     0
  0
APPID
  2
ACADANNOTATIVE
 70
     0
  0
APPID
  2
ACAD_MLEADERVER
 70
     0
  0
ENDTAB
  0
TABLE
  2
DIMSTYLE
 70
     2
  0
DIMSTYLE
  2
STANDARD
 70
     0
  3

  4

  5

  6

  7

 40
1.0
 41
0.18
 42
0.0625
 43
0.38
 44
0.18
 45
0.0
 46
0.0
 47
0.0
 48
0.0
140
0.18
141
0.09
142
0.0
143
25.399999999999999
144
1.0
145
0.0
146
1.0
147
0.09
 71
     0
 72
     0
 73
     1
 74
     1
 75
     0
 76
     0
 77
     0
 78
     0
170
     0
171
     2
172
     0
173
     0
174
     0
175
     0
176
     0
177
     0
178
     0
  0
DIMSTYLE
  2
ANNOTATIVE
 70
     0
  3

  4

  5

  6

  7

 40
1.0
 41
0.18
 42
0.0625
 43
0.38
 44
0.18
 45
0.0
 46
0.0
 47
0.0
 48
0.0
140
0.18
141
0.09
142
0.0
143
25.399999999999999
144
1.0
145
0.0
146
1.0
147
0.09
 71
     0
 72
     0
 73
     1
 74
     1
 75
     0
 76
     0
 77
     0
 78
     0
170
     0
171
     2
172
     0
173
     0
174
     0
175
     0
176
     0
177
     0
178
     0
  0
ENDTAB
  0
ENDSEC
  0
SECTION
  2
BLOCKS
  0
BLOCK
  8
0
  2
$MODEL_SPACE
 70
     0
 10
0.0
 20
0.0
 30
0.0
  3
$MODEL_SPACE
  1

  0
ENDBLK
  5
73
  8
0
  0
BLOCK
 67
     1
  8
0
  2
$PAPER_SPACE
 70
     0
 10
0.0
 20
0.0
 30
0.0
  3
$PAPER_SPACE
  1

  0
ENDBLK
  5
6F
 67
     1
  8
0
  0
ENDSEC
  0
SECTION
  2
ENTITIES
  0
POLYLINE
  5
B7
  8
0
 66
     1
 10
0.0
 20
0.0
 30
0.0
 70
     1
  0
VERTEX
  5
B8
  8
0
 10
45.999499999999983
 20
75.168061960866766
 30
0.0
 42
-0.3958472573832065
  0
VERTEX
  5
B9
  8
0
 10
49.747223171594541
 20
79.160098584176936
 30
0.0
 42
-0.0315660250558691
  0
VERTEX
  5
BB
  8
0
 10
50.251776828192632
 20
79.160098584190393
 30
0.0
 42
-0.5360155467575904
  0
VERTEX
  5
BC
  8
0
 10
53.582843542827163
 20
73.390521791396949
 30
0.0
 42
-0.0439557060354187
  0
VERTEX
  5
BD
  8
0
 10
53.216943393278569
 20
72.791497631620032
 30
0.0
 42
-0.5201931844209078
  0
VERTEX
  5
BE
  8
0
 10
46.668433285578232
 20
72.953565507026411
 30
0.0
 42
-0.0315660250558688
  0
VERTEX
  5
BF
  8
0
 10
46.416156457267547
 20
73.390521791205956
 30
0.0
 42
-0.11563320342122
  0
SEQEND
  5
BA
  8
0
  0
POLYLINE
  5
C1
  8
0
 66
     1
 10
0.0
 20
0.0
 30
0.0
 70
     1
  0
VERTEX
  5
C2
  8
0
 10
79.332499999999953
 20
75.168061960866766
 30
0.0
 42
-0.3958472573832065
  0
VERTEX
  5
C3
  8
0
 10
83.080223171594525
 20
79.160098584176936
 30
0.0
 42
-0.0315660250558684
  0
VERTEX
  5
C5
  8
0
 10
83.584776828192588
 20
79.160098584190393
 30
0.0
 42
-0.5360155467575919
  0
VERTEX
  5
C6
  8
0
 10
86.915843542827133
 20
73.390521791396964
 30
0.0
 42
-0.0439557060354187
  0
VERTEX
  5
C7
  8
0
 10
86.549943393278554
 20
72.791497631620032
 30
0.0
 42
-0.5201931844209075
  0
VERTEX
  5
C8
  8
0
 10
80.001433285578244
 20
72.953565507026411
 30
0.0
 42
-0.0315660250558691
  0
VERTEX
  5
C9
  8
0
 10
79.749156457267532
 20
73.390521791205956
 30
0.0
 42
-0.11563320342122
  0
SEQEND
  5
C4
  8
0
  0
POLYLINE
  5
CA
  8
0
 66
     1
 10
0.0
 20
0.0
 30
0.0
 70
     1
  0
VERTEX
  5
CB
  8
0
 10
79.332499999999953
 20
46.300837176520062
 30
0.0
 42
-0.115633203407716
  0
VERTEX
  5
CC
  8
0
 10
79.749156457172774
 20
48.078377345989871
 30
0.0
 42
-0.0439557060354193
  0
VERTEX
  5
CE
  8
0
 10
80.115056606721367
 20
48.677401505766788
 30
0.0
 42
-0.5201931844209075
  0
VERTEX
  5
CF
  8
0
 10
86.663566714421705
 20
48.515333630360409
 30
0.0
 42
-0.0315660250558691
  0
VERTEX
  5
D0
  8
0
 10
86.915843542732375
 20
48.078377346180872
 30
0.0
 42
-0.5360155467575898
  0
VERTEX
  5
D1
  8
0
 10
83.584776828405424
 20
42.308800553209878
 30
0.0
 42
-0.0315660250558684
  0
VERTEX
  5
D2
  8
0
 10
83.080223171807319
 20
42.308800553196427
 30
0.0
 42
-0.3958472573986218
  0
SEQEND
  5
CD
  8
0
  0
POLYLINE
  5
D3
  8
0
 66
     1
 10
0.0
 20
0.0
 30
0.0
 70
     1
  0
VERTEX
  5
D4
  8
0
 10
45.999499999999919
 20
46.300837176520062
 30
0.0
 42
-0.115633203407716
  0
VERTEX
  5
D5
  8
0
 10
46.416156457172747
 20
48.078377345989871
 30
0.0
 42
-0.0439557060354187
  0
VERTEX
  5
D7
  8
0
 10
46.782056606721341
 20
48.677401505766788
 30
0.0
 42
-0.5201931844209075
  0
VERTEX
  5
D8
  8
0
 10
53.330566714421657
 20
48.515333630360431
 30
0.0
 42
-0.0315660250558691
  0
VERTEX
  5
D9
  8
0
 10
53.582843542732363
 20
48.078377346180893
 30
0.0
 42
-0.5360155467575903
  0
VERTEX
  5
DA
  8
0
 10
50.251776828405369
 20
42.308800553209878
 30
0.0
 42
-0.0315660250558691
  0
VERTEX
  5
DB
  8
0
 10
49.747223171807271
 20
42.308800553196427
 30
0.0
 42
-0.3958472573986205
  0
SEQEND
  5
D6
  8
0
  0
POLYLINE
  5
DC
  8
0
 66
     1
 10
0.0
 20
0.0
 30
0.0
 70
     1
  0
VERTEX
  5
DD
  8
0
 10
12.666499999999919
 20
17.433612392173401
 30
0.0
 42
-0.3958472573909141
  0
VERTEX
  5
DE
  8
0
 10
16.414223171700879
 20
21.425649015490301
 30
0.0
 42
-0.0315660250558677
  0
VERTEX
  5
E0
  8
0
 10
16.918776828298949
 20
21.425649015490301
 30
0.0
 42
-0.5360155467575913
  0
VERTEX
  5
E1
  8
0
 10
20.249843542779718
 20
15.65607222260808
 30
0.0
 42
-0.0439557060354187
  0
VERTEX
  5
E2
  8
0
 10
19.883943393215159
 20
15.05704806284092
 30
0.0
 42
-0.5201931844209075
  0
VERTEX
  5
E3
  8
0
 10
13.33543328551915
 20
15.219115938421821
 30
0.0
 42
-0.0315660250558688
  0
VERTEX
  5
E4
  8
0
 10
13.08315645722011
 20
15.65607222260809
 30
0.0
 42
-0.1156332034144683
  0
SEQEND
  5
DF
  8
0
  0
POLYLINE
  5
E5
  8
0
 66
     1
 10
0.0
 20
0.0
 30
0.0
 70
     1
  0
VERTEX
  5
E6
  8
0
 10
62.665999999999947
 20
17.43361239217338
 30
0.0
 42
-0.1156332034077159
  0
VERTEX
  5
E7
  8
0
 10
63.082656457172767
 20
19.211152561643189
 30
0.0
 42
-0.0439557060354182
  0
VERTEX
  5
E9
  8
0
 10
63.448556606721347
 20
19.810176721420099
 30
0.0
 42
-0.5201931844209079
  0
VERTEX
  5
EA
  8
0
 10
69.997066714421692
 20
19.648108846013749
 30
0.0
 42
-0.0315660250558691
  0
VERTEX
  5
EB
  8
0
 10
70.24934354273239
 20
19.211152561834201
 30
0.0
 42
-0.5360155467575911
  0
VERTEX
  5
EC
  8
0
 10
66.918276828405382
 20
13.441575768863199
 30
0.0
 42
-0.0315660250558684
  0
VERTEX
  5
ED
  8
0
 10
66.413723171807305
 20
13.441575768849759
 30
0.0
 42
-0.3958472573986205
  0
SEQEND
  5
E8
  8
0
  0
POLYLINE
  5
EE
  8
0
 66
     1
 10
0.0
 20
0.0
 30
0.0
 70
     1
  0
VERTEX
  5
EF
  8
0
 10
95.998999999999967
 20
17.43361239217338
 30
0.0
 42
-0.1156332034077158
  0
VERTEX
  5
F0
  8
0
 10
96.415656457172787
 20
19.211152561643178
 30
0.0
 42
-0.0439557060354195
  0
VERTEX
  5
F2
  8
0
 10
96.781556606721395
 20
19.810176721420099
 30
0.0
 42
-0.5201931844209073
  0
VERTEX
  5
F3
  8
0
 10
103.3300667144217
 20
19.648108846013749
 30
0.0
 42
-0.0315660250558695
  0
VERTEX
  5
F4
  8
0
 10
103.5823435427324
 20
19.21115256183419
 30
0.0
 42
-0.5360155467575899
  0
VERTEX
  5
F5
  8
0
 10
100.25127682840539
 20
13.44157576886321
 30
0.0
 42
-0.0315660250558695
  0
VERTEX
  5
F6
  8
0
 10
99.746723171807332
 20
13.441575768849759
 30
0.0
 42
-0.3958472573986205
  0
SEQEND
  5
F1
  8
0
  0
POLYLINE
  5
F7
  8
0
 66
     1
 10
0.0
 20
0.0
 30
0.0
 70
     1
  0
VERTEX
  5
F8
  8
0
 10
45.999499999999941
 20
17.433612392173369
 30
0.0
 42
-0.395847257383209
  0
VERTEX
  5
F9
  8
0
 10
49.747223171594541
 20
21.42564901548355
 30
0.0
 42
-0.0315660250558671
  0
VERTEX
  5
FB
  8
0
 10
50.251776828192597
 20
21.425649015497001
 30
0.0
 42
-0.5360155467575911
  0
VERTEX
  5
FC
  8
0
 10
53.582843542827121
 20
15.65607222270356
 30
0.0
 42
-0.0439557060354184
  0
VERTEX
  5
FD
  8
0
 10
53.216943393278541
 20
15.05704806292664
 30
0.0
 42
-0.5201931844209068
  0
VERTEX
  5
FE
  8
0
 10
46.66843328557821
 20
15.219115938332999
 30
0.0
 42
-0.0315660250558691
  0
VERTEX
  5
FF
  8
0
 10
46.416156457267512
 20
15.656072222512559
 30
0.0
 42
-0.1156332034212204
  0
SEQEND
  5
FA
  8
0
  0
POLYLINE
  5
100
  8
0
 66
     1
 10
0.0
 20
0.0
 30
0.0
 70
     1
  0
VERTEX
  5
101
  8
0
 10
112.66549999999989
 20
17.43361239217338
 30
0.0
 42
-0.3958472573909141
  0
VERTEX
  5
102
  8
0
 10
116.41322317170091
 20
21.425649015490279
 30
0.0
 42
-0.0315660250558682
  0
VERTEX
  5
104
  8
0
 10
116.917776828299
 20
21.425649015490279
 30
0.0
 42
-0.5360155467575908
  0
VERTEX
  5
105
  8
0
 10
120.2488435427798
 20
15.65607222260806
 30
0.0
 42
-0.0439557060354195
  0
VERTEX
  5
106
  8
0
 10
119.8829433932152
 20
15.0570480628409
 30
0.0
 42
-0.5201931844209076
  0
VERTEX
  5
107
  8
0
 10
113.3344332855192
 20
15.219115938421799
 30
0.0
 42
-0.0315660250558691
  0
VERTEX
  5
108
  8
0
 10
113.08215645722009
 20
15.656072222608071
 30
0.0
 42
-0.115633203414468
  0
SEQEND
  5
103
  8
0
  0
POLYLINE
  5
109
  8
0
 66
     1
 10
0.0
 20
0.0
 30
0.0
 70
     1
  0
VERTEX
  5
10A
  8
0
 10
79.332499999999953
 20
17.43361239217338
 30
0.0
 42
-0.3958472573754988
  0
VERTEX
  5
10B
  8
0
 10
83.080223171488115
 20
21.425649015476829
 30
0.0
 42
-0.0315660250558682
  0
VERTEX
  5
10D
  8
0
 10
83.584776828086191
 20
21.42564901550373
 30
0.0
 42
-0.536015546757592
  0
VERTEX
  5
10E
  8
0
 10
86.915843542874512
 20
15.65607222279907
 30
0.0
 42
-0.0439557060354199
  0
VERTEX
  5
10F
  8
0
 10
86.549943393341863
 20
15.05704806301239
 30
0.0
 42
-0.5201931844209068
  0
VERTEX
  5
110
  8
0
 10
80.001433285637233
 20
15.21911593824424
 30
0.0
 42
-0.0315660250558688
  0
VERTEX
  5
111
  8
0
 10
79.749156457314911
 20
15.656072222417061
 30
0.0
 42
-0.1156332034279723
  0
SEQEND
  5
10C
  8
0
  0
POLYLINE
  5
112
  8
0
 66
     1
 10
0.0
 20
0.0
 30
0.0
 70
     1
  0
VERTEX
  5
113
  8
0
 10
29.33299999999992
 20
17.43361239217338
 30
0.0
 42
-0.1156332034077165
  0
VERTEX
  5
114
  8
0
 10
29.749656457172751
 20
19.211152561643189
 30
0.0
 42
-0.0439557060354187
  0
VERTEX
  5
116
  8
0
 10
30.115556606721331
 20
19.81017672142011
 30
0.0
 42
-0.520193184420907
  0
VERTEX
  5
117
  8
0
 10
36.664066714421672
 20
19.648108846013749
 30
0.0
 42
-0.0315660250558695
  0
VERTEX
  5
118
  8
0
 10
36.916343542732349
 20
19.21115256183419
 30
0.0
 42
-0.5360155467575899
  0
VERTEX
  5
119
  8
0
 10
33.58527682840537
 20
13.44157576886321
 30
0.0
 42
-0.0315660250558695
  0
VERTEX
  5
11A
  8
0
 10
33.080723171807271
 20
13.441575768849759
 30
0.0
 42
-0.3958472573986205
  0
SEQEND
  5
115
  8
0
  0
POLYLINE
  5
11B
  8
0
 66
     1
 10
0.0
 20
0.0
 30
0.0
 70
     1
  0
VERTEX
  5
11C
  8
0
 10
29.33299999999992
 20
46.300837176520062
 30
0.0
 42
-0.3958472573832077
  0
VERTEX
  5
11D
  8
0
 10
33.080723171594499
 20
50.29287379983024
 30
0.0
 42
-0.0315660250558684
  0
VERTEX
  5
11F
  8
0
 10
33.585276828192583
 20
50.292873799843683
 30
0.0
 42
-0.5360155467575907
  0
VERTEX
  5
120
  8
0
 10
36.9163435428271
 20
44.523297007050239
 30
0.0
 42
-0.0439557060354187
  0
VERTEX
  5
121
  8
0
 10
36.550443393278513
 20
43.924272847273322
 30
0.0
 42
-0.5201931844209066
  0
VERTEX
  5
122
  8
0
 10
30.00193328557819
 20
44.086340722679687
 30
0.0
 42
-0.0315660250558691
  0
VERTEX
  5
123
  8
0
 10
29.749656457267491
 20
44.523297006859238
 30
0.0
 42
-0.1156332034212205
  0
SEQEND
  5
11E
  8
0
  0
POLYLINE
  5
124
  8
0
 66
     1
 10
0.0
 20
0.0
 30
0.0
 70
     1
  0
VERTEX
  5
125
  8
0
 10
62.665999999999947
 20
46.300837176520062
 30
0.0
 42
-0.3958472573793532
  0
VERTEX
  5
126
  8
0
 10
66.413723171541321
 20
50.292873799826872
 30
0.0
 42
-0.0315660250558691
  0
VERTEX
  5
128
  8
0
 10
66.918276828139398
 20
50.292873799847051
 30
0.0
 42
-0.5360155467575913
  0
VERTEX
  5
129
  8
0
 10
70.249343542850809
 20
44.523297007097987
 30
0.0
 42
-0.043955706035419
  0
VERTEX
  5
12A
  8
0
 10
69.883443393310202
 20
43.924272847316203
 30
0.0
 42
-0.520193184420907
  0
VERTEX
  5
12B
  8
0
 10
63.334933285607718
 20
44.086340722635313
 30
0.0
 42
-0.0315660250558688
  0
VERTEX
  5
12C
  8
0
 10
63.082656457291222
 20
44.523297006811489
 30
0.0
 42
-0.1156332034245964
  0
SEQEND
  5
127
  8
0
  0
POLYLINE
  5
12D
  8
0
 66
     1
 10
0.0
 20
0.0
 30
0.0
 70
     1
  0
VERTEX
  5
12E
  8
0
 10
95.998999999999967
 20
46.300837176520069
 30
0.0
 42
-0.3958472573832065
  0
VERTEX
  5
12F
  8
0
 10
99.746723171594525
 20
50.292873799830247
 30
0.0
 42
-0.0315660250558691
  0
VERTEX
  5
131
  8
0
 10
100.2512768281926
 20
50.292873799843711
 30
0.0
 42
-0.5360155467575904
  0
VERTEX
  5
132
  8
0
 10
103.5823435428271
 20
44.52329700705026
 30
0.0
 42
-0.0439557060354187
  0
VERTEX
  5
133
  8
0
 10
103.2164433932785
 20
43.924272847273343
 30
0.0
 42
-0.5201931844209075
  0
VERTEX
  5
134
  8
0
 10
96.667933285578215
 20
44.086340722679722
 30
0.0
 42
-0.0315660250558682
  0
VERTEX
  5
135
  8
0
 10
96.415656457267545
 20
44.523297006859252
 30
0.0
 42
-0.1156332034212206
  0
SEQEND
  5
130
  8
0
  0
POLYLINE
  5
136
  8
0
 66
     1
 10
0.0
 20
0.0
 30
0.0
 70
     1
  0
VERTEX
  5
137
  8
0
 10
62.66599999999994
 20
75.16806196086678
 30
0.0
 42
-0.1156332034077172
  0
VERTEX
  5
138
  8
0
 10
63.082656457172767
 20
76.94560213033661
 30
0.0
 42
-0.0439557060354188
  0
VERTEX
  5
13A
  8
0
 10
63.448556606721368
 20
77.544626290113527
 30
0.0
 42
-0.520193184420905
  0
VERTEX
  5
13B
  8
0
 10
69.997066714421678
 20
77.382558414707162
 30
0.0
 42
-0.0315660250558706
  0
VERTEX
  5
13C
  8
0
 10
70.249343542732376
 20
76.94560213052759
 30
0.0
 42
-0.5360155467575904
  0
VERTEX
  5
13D
  8
0
 10
66.918276828405382
 20
71.176025337556609
 30
0.0
 42
-0.0315660250558688
  0
VERTEX
  5
13E
  8
0
 10
66.413723171807291
 20
71.176025337543166
 30
0.0
 42
-0.3958472573986205
  0
SEQEND
  5
139
  8
0
  0
POLYLINE
  5
13F
  8
0
 66
     1
 10
0.0
 20
0.0
 30
0.0
 70
     1
  0
VERTEX
  5
140
  8
0
 10
62.665999999999947
 20
104.0352867452134
 30
0.0
 42
-0.3958472573832071
  0
VERTEX
  5
141
  8
0
 10
66.413723171594526
 20
108.0273233685236
 30
0.0
 42
-0.0315660250558684
  0
VERTEX
  5
143
  8
0
 10
66.918276828192603
 20
108.027323368537
 30
0.0
 42
-0.5360155467575921
  0
VERTEX
  5
144
  8
0
 10
70.24934354282712
 20
102.2577465757436
 30
0.0
 42
-0.0439557060354195
  0
VERTEX
  5
145
  8
0
 10
69.883443393278526
 20
101.65872241596669
 30
0.0
 42
-0.5201931844209059
  0
VERTEX
  5
146
  8
0
 10
63.334933285578209
 20
101.8207902913731
 30
0.0
 42
-0.0315660250558684
  0
VERTEX
  5
147
  8
0
 10
63.082656457267518
 20
102.2577465755526
 30
0.0
 42
-0.1156332034212206
  0
SEQEND
  5
142
  8
0
  0
POLYLINE
  5
148
  8
0
 66
     1
 10
0.0
 20
0.0
 30
0.0
 70
     1
  0
VERTEX
  5
149
  8
0
 10
64.067923788646667
 20
119.9688991373867
 30
0.0
  0
VERTEX
  5
14A
  8
0
 10
-2.5980762113533191
 20
4.5000000000000098
 30
0.0
 42
0.577350269189626
  0
VERTEX
  5
14C
  8
0
 10
-0.0000000000000006
 20
0.0000000000000067
 30
0.0
  0
VERTEX
  5
14D
  8
0
 10
133.33199999999999
 20
0.0
 30
0.0
 42
0.577350269189626
  0
VERTEX
  5
14E
  8
0
 10
135.93007621135331
 20
4.5000000000000089
 30
0.0
  0
VERTEX
  5
14F
  8
0
 10
69.264076211353796
 20
119.9688991373859
 30
0.0
 42
0.5773502691897241
  0
SEQEND
  5
14B
  8
0
  0
CIRCLE
  5
150
  8
0
 10
99.998999999999995
 20
60.734449568693371
 30
0.0
 40
1.5
  0
CIRCLE
  5
151
  8
0
 10
83.332499999999996
 20
89.601674353040039
 30
0.0
 40
1.5
  0
CIRCLE
  5
152
  8
0
 10
66.665999999999997
 20
60.734449568693357
 30
0.0
 40
1.5
  0
CIRCLE
  5
153
  8
0
 10
33.333000000000013
 20
3.0000000000000071
 30
0.0
 40
1.5
  0
CIRCLE
  5
154
  8
0
 10
16.666499999999999
 20
31.867224784346689
 30
0.0
 40
1.5
  0
CIRCLE
  5
155
  8
0
 10
66.665999999999997
 20
3.0000000000000071
 30
0.0
 40
1.5
  0
CIRCLE
  5
156
  8
0
 10
99.998999999999995
 20
3.0000000000000071
 30
0.0
 40
1.5
  0
CIRCLE
  5
157
  8
0
 10
133.33199999999999
 20
3.0000000000000071
 30
0.0
 40
1.5
  0
CIRCLE
  5
158
  8
0
 10
116.66549999999999
 20
31.867224784346689
 30
0.0
 40
1.5
  0
CIRCLE
  5
159
  8
0
 10
83.332499999999996
 20
31.867224784346689
 30
0.0
 40
1.5
  0
CIRCLE
  5
15A
  8
0
 10
49.999499999999998
 20
31.867224784346689
 30
0.0
 40
1.5
  0
CIRCLE
  5
15B
  8
0
 10
0.0
 20
3.0000000000000071
 30
0.0
 40
1.5
  0
CIRCLE
  5
15C
  8
0
 10
33.332999999999998
 20
60.734449568693371
 30
0.0
 40
1.5
  0
CIRCLE
  5
15D
  8
0
 10
49.999499999999998
 20
89.601674353040039
 30
0.0
 40
1.5
  0
CIRCLE
  5
15E
  8
0
 10
66.666000000000011
 20
118.4688991373867
 30
0.0
 40
1.5
  0
ENDSEC
  0
EOF
